<svg xmlns="http://www.w3.org/2000/svg" viewBox="0 0 33.867 33.867" id="linkedin">
  <defs>
    <linearGradient id="a">
      <stop offset="0" stop-color="#004ff6" class="stopColorf6f600 svgShape"></stop>
      <stop offset="1" stop-color="#3472f6" class="stopColorf69134 svgShape"></stop>
    </linearGradient>
  </defs>
  <path fill="#3a5a9e" d="m 17.764712,22.097243 c 1.284616,-4.794253 7.205667,-4.403231 7.205667,-0.236614 l 0,9.368472 c 0,0.87947 0.70803,1.5875 1.5875,1.5875 h 3.343981 c 0.879473,0 1.587503,-0.70803 1.5875,-1.5875 l 0,-12.840558 c 2.6e-5,-7.584508 -13.863456,-8.4984907 -13.795036,-2.481442 z" paint-order="fill markers stroke" class="color0066ff svgShape"></path>
  <path fill="#0052ff" d="m 3.9687497,10.379381 c -0.8794671,0 -1.5875001,0.70803 -1.5875001,1.5875 v 19.26222 c 0,0.87947 0.7080304,1.5875 1.5875001,1.5875 h 3.3439814 c 0.8794723,0 1.5875026,-0.70803 1.5874999,-1.5875 v -19.26222 c 2.7e-6,-0.87947 -0.7080276,-1.5875 -1.5874999,-1.5875 z" paint-order="fill markers stroke" class="color00a1ff svgShape"></path>
  <path fill="#3a5a9e" d="m 13.700991,10.379381 c -0.879467,0 -1.5875,0.70803 -1.5875,1.5875 l 0,19.26222 c 0,0.87947 0.70803,1.5875 1.5875,1.5875 h 3.343981 c 0.879473,0 1.587503,-0.70803 1.5875,-1.5875 l 0,-19.26222 c 3e-6,-0.87947 -0.708027,-1.5875 -1.5875,-1.5875 z" paint-order="fill markers stroke" class="color0066ff svgShape"></path>
  <path fill="#a8c4ff" d="M 5.7133499,7.7174076 A 3.3295373,3.3295373 0 0 1 2.3838126,4.3878703 3.3295373,3.3295373 0 0 1 5.7133499,1.0583329 3.3295373,3.3295373 0 0 1 9.0428872,4.3878703 3.3295373,3.3295373 0 0 1 5.7133499,7.7174076 Z" paint-order="fill markers stroke" class="colora8d0ff svgShape"></path>
</svg>
